<?xml version="1.0" encoding="UTF-8"?>
<svg width="13px" height="18px" viewBox="0 0 13 18" version="1.1" xmlns="http://www.w3.org/2000/svg" xmlns:xlink="http://www.w3.org/1999/xlink">
    <!-- Generator: Sketch 41 (35326) - http://www.bohemiancoding.com/sketch -->
    <title>locked-padlock</title>
    <desc>Created with Sketch.</desc>
    <defs></defs>
    <g id="Page-1" stroke="none" stroke-width="1" fill="none" fill-rule="evenodd">
        <g id="Design" transform="translate(-1034.000000, -51.000000)">
            <g id="Navigation-Bar">
                <g id="Password" transform="translate(1025.000000, 42.000000)">
                    <g id="locked-padlock" transform="translate(10.000000, 10.000000)">
                        <g id="Capa_1">
                            <g id="Group">
                                <path d="M10.4398008,5.40883887 L9.40559004,5.40883887 L9.40559004,3.06870077 C9.40559004,1.3766087 8.14531034,0 6.5962069,0 L4.38242529,0 C2.83332184,0 1.57304215,1.3766087 1.57304215,3.06870077 L1.57304215,5.40883887 L0.538831418,5.40883887 C0.247858238,5.40883887 0.0120114943,5.66645524 0.0120114943,5.98428645 L0.0120114943,11.6050281 C0.0120114943,13.9506905 1.7590728,15.8589668 3.90651724,15.8589668 L7.0720728,15.8589668 C9.21951724,15.8589668 10.9665785,13.9506445 10.9665785,11.6050281 L10.9665785,5.98428645 C10.9666207,5.66645524 10.7307739,5.40883887 10.4398008,5.40883887 L10.4398008,5.40883887 Z" id="Shape" stroke="#00D277"></path>
                                <path d="M4.96251724,12.7975857 C4.96251724,13.1154169 5.19836398,13.3730332 5.48933716,13.3730332 C5.7802682,13.3730332 6.01615709,13.1154169 6.01615709,12.7975857 L6.01615709,11.1546138 C6.07882759,11.0598721 6.11625287,10.9438619 6.11625287,10.818046 C6.11625287,10.5002609 5.88036398,10.2425985 5.58943295,10.2425985 L5.38924138,10.2425985 C5.09831034,10.2425985 4.86242146,10.5002609 4.86242146,10.818046 C4.86242146,10.9438159 4.8998046,11.0598721 4.96251724,11.1546138 L4.96251724,12.7975857 L4.96251724,12.7975857 Z" id="Shape" fill="#00D277"></path>
                                <path d="M1.61764706,5.4144385 L9.38235294,5.4144385" id="Line" stroke="#00D277" stroke-linecap="square"></path>
                            </g>
                        </g>
                    </g>
                </g>
            </g>
        </g>
    </g>
</svg>