<?xml version="1.0" encoding="utf-8"?>
<!-- Generator: Adobe Illustrator 19.1.0, SVG Export Plug-In . SVG Version: 6.00 Build 0)  -->
<svg version="1.1" id="Layer_1" xmlns="http://www.w3.org/2000/svg" xmlns:xlink="http://www.w3.org/1999/xlink" x="0px" y="0px"
	 viewBox="0 0 100 100" style="enable-background:new 0 0 100 100;" xml:space="preserve">
<style type="text/css">
	.st0{fill:#FFFFFF;}
</style>
<g>
	<polyline class="st0" points="13.7,35.1 49.8,65.2 86.3,34.8 	"/>
	<g>
		<path d="M8.4,40.4c12.1,10,24.1,20,36.2,30.1c3.3,2.8,7.2,2.8,10.6,0c12.2-10.1,24.3-20.2,36.5-30.3C99.1,34,88.4,23.4,81,29.5
			C68.9,39.6,56.7,49.8,44.5,59.9c3.5,0,7.1,0,10.6,0C43.1,49.9,31,39.8,19,29.8C11.6,23.7,0.9,34.2,8.4,40.4L8.4,40.4z"/>
	</g>
</g>
</svg>
