<?xml version="1.0" encoding="UTF-8"?>
<svg width="15px" height="19px" viewBox="0 0 15 19" version="1.1" xmlns="http://www.w3.org/2000/svg" xmlns:xlink="http://www.w3.org/1999/xlink">
    <!-- Generator: Sketch 41 (35326) - http://www.bohemiancoding.com/sketch -->
    <title>user</title>
    <desc>Created with Sketch.</desc>
    <defs></defs>
    <g id="Page-1" stroke="none" stroke-width="1" fill="none" fill-rule="evenodd">
        <g id="user" transform="translate(1.000000, 1.000000)" stroke-width="0.5" stroke="#00D277">
            <g id="Capa_1">
                <path d="M11.590913,12.1518833 L8.89115217,10.7986833 C8.63652174,10.6709 8.47826087,10.4142 8.47826087,10.1286 L8.47826087,9.17065 C8.54297826,9.09131667 8.61108696,9.00093333 8.68145652,8.9012 C9.0316087,8.40536667 9.31223913,7.85343333 9.51628261,7.25815 C9.91504348,7.07483333 10.173913,6.67958333 10.173913,6.23333333 L10.173913,5.1 C10.173913,4.82715 10.0721739,4.5628 9.89130435,4.35625 L9.89130435,2.8492 C9.90713043,2.69336667 9.96930435,1.76573333 9.30008696,1.00045 C8.7196087,0.3366 7.77767391,0 6.5,0 C5.22232609,0 4.2803913,0.3366 3.69991304,1.00016667 C3.03069565,1.76545 3.09286957,2.69336667 3.10869565,2.8492 L3.10869565,4.35625 C2.92782609,4.5628 2.82608696,4.82715 2.82608696,5.1 L2.82608696,6.23333333 C2.82608696,6.57815 2.98236957,6.89973333 3.24915217,7.11421667 C3.50802174,8.14186667 4.04978261,8.91621667 4.23913043,9.1647 L4.23913043,10.10225 C4.23913043,10.3765167 4.08991304,10.6281167 3.84997826,10.7595833 L1.32882609,12.1382833 C0.508978261,12.5868 0,13.4464333 0,14.3825667 L0,15.3 C0,16.6447 4.25184783,17 6.5,17 C8.74815217,17 13,16.6447 13,15.3 L13,14.4378167 C13,13.4637167 12.4599348,12.58765 11.590913,12.1518833 L11.590913,12.1518833 Z M12.4347826,15.3 C12.4347826,15.6844833 10.340087,16.4333333 6.5,16.4333333 C2.65991304,16.4333333 0.565217391,15.6844833 0.565217391,15.3 L0.565217391,14.3825667 C0.565217391,13.6541167 0.961434783,12.9846 1.59928261,12.6361 L4.12043478,11.2574 C4.54236957,11.0264833 4.80434783,10.5836333 4.80434783,10.10225 L4.80434783,8.96353333 L4.7385,8.88476667 C4.73171739,8.87655 4.03904348,8.03646667 3.77480435,6.88301667 L3.74908696,6.77081667 L3.65271739,6.70848333 C3.48908696,6.60251667 3.39130435,6.42486667 3.39130435,6.23333333 L3.39130435,5.1 C3.39130435,4.94105 3.45856522,4.79286667 3.58065217,4.68208333 L3.67391304,4.59793333 L3.67391304,2.83333333 L3.67136957,2.79621667 C3.67052174,2.78856667 3.57443478,2.00316667 4.12495652,1.3736 C4.59323913,0.8381 5.39245652,0.566666667 6.5,0.566666667 C7.60358696,0.566666667 8.4011087,0.836116667 8.86995652,1.36793333 C9.42019565,1.99155 9.32919565,2.78941667 9.32863043,2.79621667 L9.32608696,4.59793333 L9.41934783,4.68236667 C9.54143478,4.79286667 9.60869565,4.94105 9.60869565,5.1 L9.60869565,6.23333333 C9.60869565,6.48068333 9.44704348,6.69715 9.20682609,6.77138333 L9.06608696,6.81473333 L9.02086957,6.95498333 C8.83180435,7.5446 8.56247826,8.08916667 8.21995652,8.57366667 C8.13602174,8.69295 8.05434783,8.79863333 7.98341304,8.87938333 L7.91304348,8.95985 L7.91304348,10.1286 C7.91304348,10.6301 8.19084783,11.0808833 8.63821739,11.3052833 L11.3379783,12.6584833 C12.0145435,12.9976333 12.4347826,13.6793333 12.4347826,14.4378167 L12.4347826,15.3 L12.4347826,15.3 Z" id="Shape"></path>
            </g>
        </g>
    </g>
</svg>